# xmcd
#
# Track frame offsets:
#	150
#	3455
#	18261
#	33300
#	53236
#	68121
#	79465
#	93676
#	106013
#	120214
#	129051
#	142802
#	160976
#	175056
#	180098
#	193881
#	200142
#	211567
#	231285
#	250779
#	255862
#	265701
#	286699
#	314629
#	339729
#	342600
#
# Disc length: 4594 seconds
#
# Revision: 0
# Processed by: cddbd v1.5.2PL0 Copyright (c) Steve Scherf et al.
# Submitted via: EasyCDDAExtractor 16.0.6.1
#
DISCID=6111f01a
DTITLE=Συλλογικός δίσκος - Σε δρόμους λαϊκούς-Π. Γεραμάνης
DYEAR=2010
DGENRE=Ποικίλη
TTITLE0=Γεραμάνης Πάνος - Προσφώνηση
TTITLE1=Γεραμάνης Πάνος - Το Βασιλικό Χαλκίδος και τα πρώτα μουσικά ακούσματα
TTITLE2=Γούναρης Νίκος-Μαρούδας Τώνης - Το γιασεμί στο στήθος σου [1947, καντά
TTITLE2=δα, Ν. Γούναρης-Κ. Κοφινιώτης]
TTITLE3=Γεραμάνης Πάνος - Στο δημοτικό σχολείο [Η βαριά ατμόσφαιρα της εποχής]
TTITLE4=Μητσάκης Γιώργος-Τατασσόπουλος Γιάννης - Απόψε είναι βαριά [1952, ζεϊμ
TTITLE4=π., Γ. Μητσάκης]
TTITLE5=Γεραμάνης Πάνος - Λαϊκά τραγούδια στον κινηματογράφο Ακροπόλ
TTITLE6=Καζαντζίδης Στέλιος-Γκρέϋ Καίτη - Η τελευταία νύχτα [1954, ζεϊμπ., Μ. 
TTITLE6=Χιώτης-Χρ. Κολοκοτρώνης]
TTITLE7=Γεραμάνης Πάνος - Ένα θλιβερό συμβάν
TTITLE8=Μαρούδας Τώνης-Τρίο Μπελκάντο - Και η βάρκα γύρισε μόνη [1957, βαλς, Τ
TTITLE8=Μαρούδας-Θ. Σοφός]
TTITLE9=Γεραμάνης Πάνος - Έντονες αναμνήσεις γυμνασίου Χαλκίδας
TTITLE10=Χατζηδάκη Άννα-Χατζηδάκη Αιμιλία - Του καπετάνιου η κόρη [1956, καλαμ
TTITLE10=, Γιώργος Μαργιωλάς]
TTITLE11=Γεραμάνης Πάνος - Ο συνθέτης Γ. Μαργιωλάς. Τα μουσ. περιοδικά, ποδόσφ
TTITLE11=, τραγούδια
TTITLE12=Γαβαλάς Πάνος-Γκίκα Βούλα - Οι γλάροι [1959, καλαμ., Ν. Μεϊμάρης]
TTITLE13=Γεραμάνης Πάνος - Ο Πέτρος Αναγνωστάκης ξεχωρίζει
TTITLE14=Αναγνωστάκης Πέτρος-Αδελφοί Κατσάμπα - Συχνά με το δείλι [1959, μπολέ
TTITLE14=ρο, Γ. Ζαμπέτας-Χ. Βασιλειάδης κ Τ. Μαστοράκης]
TTITLE15=Γεραμάνης Πάνος - Αναμνήσεις από το πανηγύρι της Παναγίας
TTITLE16=Μπιθικώτσης Γρηγόρης-Θύμη Καίτη-Ζίνια Λίλια - Ήθελα νά 'μουνα πουλάκι
TTITLE16=[1960, καλαμ., Γ. Μπιθικώτσης-Χρ. Κολοκοτρώνης]
TTITLE17=Γεραμάνης Πάνος - Ο Νίκος Μουρκάκος, το Φως των σπορ και οι πρώτες συ
TTITLE17=νεντεύξεις
TTITLE18=Γεραμάνης Πάνος - Ο σύλλογος φίλων ελληνικής μουσικής και το έντεχνο 
TTITLE18=τραγούδι
TTITLE19=Γεραμάνης Πάνος - ''Η καταχνιά''. Ένα νέο κεφάλαιο στην δισκογραφία
TTITLE20=Καζαντζίδης Στέλιος-Μαρινέλλα-χορωδία - Δεν θέλω να μού δέσετε τα μάτ
TTITLE20=ια [1965, Χρ. Λεοντής-Κ. Βίρβος]
TTITLE21=Γεραμάνης Πάνος - Η στρατιωτική θητεία και η επιβολή της δικτατορίας
TTITLE22=Γεραμάνης Πάνος - Αντίσταση στη χούντα. Οι μπουάτ στην Πλάκα
TTITLE23=Γεραμάνης Πάνος - Από την μεταπολίτευση μέχρι σήμερα
TTITLE24=Γεραμάνης Πάνος - Ένα παράπονο
TTITLE25=Γεραμάνης Πάνος - Αποφώνηση
EXTD=
EXTT0=
EXTT1=
EXTT2=
EXTT3=
EXTT4=
EXTT5=
EXTT6=
EXTT7=
EXTT8=
EXTT9=
EXTT10=
EXTT11=
EXTT12=
EXTT13=
EXTT14=
EXTT15=
EXTT16=
EXTT17=
EXTT18=
EXTT19=
EXTT20=
EXTT21=
EXTT22=
EXTT23=
EXTT24=
EXTT25=
PLAYORDER=
